<svg xmlns="http://www.w3.org/2000/svg" xmlns:xlink="http://www.w3.org/1999/xlink" width="35.569" height="22.386" viewBox="0 0 35.569 22.386">
  <defs>
    <clipPath id="clip-path">
      <rect id="Rectangle_850" data-name="Rectangle 850" width="35.569" height="22.385" transform="translate(0 0)" fill="#4d5255"/>
    </clipPath>
  </defs>
  <g id="Group_360" data-name="Group 360" transform="translate(0 0.001)">
    <g id="Group_359" data-name="Group 359" transform="translate(0 -0.001)" clip-path="url(#clip-path)">
      <path id="Path_773" data-name="Path 773" d="M10.534,0A13.991,13.991,0,0,1,13.45.282a6.263,6.263,0,0,1,2.257.925,4.314,4.314,0,0,1,1.458,1.709,5.994,5.994,0,0,1,.518,2.634,4.907,4.907,0,0,1-.769,2.822,5.577,5.577,0,0,1-2.272,1.849,5.387,5.387,0,0,1,3.088,2.085,6.2,6.2,0,0,1,1.02,3.59,6.17,6.17,0,0,1-.658,2.932,5.69,5.69,0,0,1-1.772,2.021,7.831,7.831,0,0,1-2.539,1.16,11.462,11.462,0,0,1-2.93.375H0V0Zm-.626,9.06a3.55,3.55,0,0,0,2.164-.626A2.36,2.36,0,0,0,12.917,6.4a2.6,2.6,0,0,0-.283-1.284,2.083,2.083,0,0,0-.753-.784A3.183,3.183,0,0,0,10.8,3.935,7.194,7.194,0,0,0,9.53,3.826H4.924V9.063Zm.283,9.5a6.587,6.587,0,0,0,1.379-.14,3.4,3.4,0,0,0,1.16-.47,2.385,2.385,0,0,0,.8-.893,3.089,3.089,0,0,0,.3-1.442,2.892,2.892,0,0,0-.972-2.46,4.144,4.144,0,0,0-2.571-.737H4.924v6.145Zm14.752-.47a3.978,3.978,0,0,0,2.885.972,3.974,3.974,0,0,0,2.32-.674,2.791,2.791,0,0,0,1.191-1.427h3.918a7.431,7.431,0,0,1-2.885,4.169,8.492,8.492,0,0,1-4.7,1.255,9.264,9.264,0,0,1-3.448-.611,7.172,7.172,0,0,1-2.6-1.741,7.8,7.8,0,0,1-1.646-2.7,9.9,9.9,0,0,1-.579-3.448,9.451,9.451,0,0,1,.595-3.385A7.836,7.836,0,0,1,24.3,5.99a8.4,8.4,0,0,1,3.371-.658,7.708,7.708,0,0,1,3.606.8A7.2,7.2,0,0,1,33.8,8.28a8.829,8.829,0,0,1,1.427,3.073,11.47,11.47,0,0,1,.314,3.606H23.848A4.485,4.485,0,0,0,24.942,18.087Zm5.033-8.526a3.13,3.13,0,0,0-2.43-.877,3.878,3.878,0,0,0-1.77.36,3.378,3.378,0,0,0-1.128.893,3.259,3.259,0,0,0-.595,1.128,5.065,5.065,0,0,0-.2,1.065h7.242A5.18,5.18,0,0,0,29.975,9.561Zm-6.89-8.425h9.048V3.645H23.085Z" transform="translate(0 0.001)" fill="#4d5255"/>
    </g>
  </g>
</svg>
