<svg xmlns="http://www.w3.org/2000/svg" xmlns:xlink="http://www.w3.org/1999/xlink" width="37" height="37" viewBox="0 0 37 37">
  <defs>
    <clipPath id="clip-path">
      <rect id="Rectangle_850" data-name="Rectangle 850" width="18.414" height="11.589" transform="translate(0 0)" fill="#ba7bed"/>
    </clipPath>
  </defs>
  <g id="Group_452" data-name="Group 452" transform="translate(-1090 -3580)">
    <circle id="Ellipse_11" data-name="Ellipse 11" cx="18.5" cy="18.5" r="18.5" transform="translate(1090 3580)" fill="#ba7bed" opacity="0.302"/>
    <g id="Group_360" data-name="Group 360" transform="translate(1099 3593.001)">
      <g id="Group_359" data-name="Group 359" transform="translate(0 -0.001)" clip-path="url(#clip-path)">
        <path id="Path_773" data-name="Path 773" d="M5.453,0a7.243,7.243,0,0,1,1.51.146A3.242,3.242,0,0,1,8.131.624a2.233,2.233,0,0,1,.755.885,3.1,3.1,0,0,1,.268,1.364,2.54,2.54,0,0,1-.4,1.461,2.887,2.887,0,0,1-1.176.957,2.789,2.789,0,0,1,1.6,1.079,3.209,3.209,0,0,1,.528,1.859,3.194,3.194,0,0,1-.341,1.518,2.946,2.946,0,0,1-.918,1.046,4.054,4.054,0,0,1-1.314.6,5.934,5.934,0,0,1-1.517.194H0V0Zm-.324,4.69a1.838,1.838,0,0,0,1.12-.324A1.222,1.222,0,0,0,6.687,3.31a1.347,1.347,0,0,0-.146-.665,1.078,1.078,0,0,0-.39-.406,1.648,1.648,0,0,0-.56-.2,3.725,3.725,0,0,0-.658-.056H2.549V4.691Zm.146,4.917a3.41,3.41,0,0,0,.714-.073,1.761,1.761,0,0,0,.6-.243A1.235,1.235,0,0,0,7,8.828a1.6,1.6,0,0,0,.154-.747,1.5,1.5,0,0,0-.5-1.274,2.145,2.145,0,0,0-1.331-.382H2.549V9.607Zm7.637-.243a2.059,2.059,0,0,0,1.493.5,2.057,2.057,0,0,0,1.2-.349,1.445,1.445,0,0,0,.617-.739h2.028a3.847,3.847,0,0,1-1.493,2.158,4.4,4.4,0,0,1-2.435.65,4.8,4.8,0,0,1-1.785-.316,3.713,3.713,0,0,1-1.347-.9,4.037,4.037,0,0,1-.852-1.4,5.127,5.127,0,0,1-.3-1.785,4.892,4.892,0,0,1,.308-1.752A4.057,4.057,0,0,1,12.58,3.1a4.35,4.35,0,0,1,1.745-.341,3.991,3.991,0,0,1,1.867.414A3.727,3.727,0,0,1,17.5,4.286a4.571,4.571,0,0,1,.739,1.591A5.938,5.938,0,0,1,18.4,7.744H12.346A2.322,2.322,0,0,0,12.912,9.363Zm2.605-4.414a1.62,1.62,0,0,0-1.258-.454,2.008,2.008,0,0,0-.917.186,1.749,1.749,0,0,0-.584.462,1.687,1.687,0,0,0-.308.584,2.622,2.622,0,0,0-.105.551h3.749A2.682,2.682,0,0,0,15.518,4.949ZM11.951.587h4.684v1.3H11.951Z" transform="translate(0 0.001)" fill="#ba7bed"/>
      </g>
    </g>
  </g>
</svg>
