<svg xmlns="http://www.w3.org/2000/svg" width="36" height="37" viewBox="0 0 36 37">
  <g id="Group_451" data-name="Group 451" transform="translate(-1040 -3580)">
    <ellipse id="Ellipse_12" data-name="Ellipse 12" cx="18" cy="18.5" rx="18" ry="18.5" transform="translate(1040 3580)" fill="#ba7bed" opacity="0.302"/>
    <path id="dribbble-icon" d="M0,9.311A9.121,9.121,0,0,1,1.248,4.637,9.245,9.245,0,0,1,4.637,1.248,9.121,9.121,0,0,1,9.311,0a9.121,9.121,0,0,1,4.674,1.248,9.244,9.244,0,0,1,3.389,3.389,9.121,9.121,0,0,1,1.248,4.674,9.121,9.121,0,0,1-1.248,4.674,9.244,9.244,0,0,1-3.389,3.389,9.121,9.121,0,0,1-4.674,1.248,9.121,9.121,0,0,1-4.674-1.248,9.245,9.245,0,0,1-3.389-3.389A9.121,9.121,0,0,1,0,9.311Zm1.546,0A7.508,7.508,0,0,0,3.5,14.432,10.656,10.656,0,0,1,6.331,11.1a9.257,9.257,0,0,1,3.78-1.993q-.279-.652-.54-1.173A22.626,22.626,0,0,1,2.644,8.957q-.726,0-1.08-.019,0,.074-.009.186T1.546,9.311Zm.242-1.918Q2.2,7.43,3,7.43a20.437,20.437,0,0,0,5.9-.838A18.856,18.856,0,0,0,5.791,2.4,7.56,7.56,0,0,0,3.268,4.469,7.95,7.95,0,0,0,1.788,7.393Zm2.775,8.045a7.609,7.609,0,0,0,7.486,1.117A27.344,27.344,0,0,0,10.6,10.391a7.942,7.942,0,0,0-3.454,1.881A10.563,10.563,0,0,0,4.562,15.437ZM7.411,1.806a19.789,19.789,0,0,1,3.035,4.227,9.274,9.274,0,0,0,3.817-2.7A7.548,7.548,0,0,0,9.311,1.546,7.148,7.148,0,0,0,7.411,1.806Zm3.706,5.549q.279.6.633,1.508,1.378-.13,3-.13,1.155,0,2.29.056a7.476,7.476,0,0,0-1.825-4.506A9.214,9.214,0,0,1,11.117,7.356Zm1.1,2.812A26.728,26.728,0,0,1,13.5,15.828a7.769,7.769,0,0,0,2.4-2.439,7.521,7.521,0,0,0,1.117-3.222q-1.359-.093-2.477-.093Q13.519,10.074,12.216,10.167Z" transform="translate(1049 3589)" fill="#ba7bed"/>
  </g>
</svg>
