<svg xmlns="http://www.w3.org/2000/svg" width="27.415" height="27.414" viewBox="0 0 27.415 27.414">
  <path id="dribbble-icon" d="M0,13.707A13.428,13.428,0,0,1,1.837,6.826,13.61,13.61,0,0,1,6.826,1.837,13.428,13.428,0,0,1,13.707,0a13.427,13.427,0,0,1,6.881,1.837,13.61,13.61,0,0,1,4.989,4.989,13.428,13.428,0,0,1,1.837,6.881,13.427,13.427,0,0,1-1.837,6.881,13.61,13.61,0,0,1-4.989,4.989,13.427,13.427,0,0,1-6.881,1.837,13.428,13.428,0,0,1-6.881-1.837,13.61,13.61,0,0,1-4.989-4.989A13.428,13.428,0,0,1,0,13.707Zm2.275,0a11.053,11.053,0,0,0,2.879,7.539,15.688,15.688,0,0,1,4.167-4.907,13.628,13.628,0,0,1,5.565-2.933q-.411-.959-.8-1.727a33.309,33.309,0,0,1-10.2,1.508q-1.069,0-1.59-.027,0,.11-.014.274T2.275,13.707Zm.356-2.824q.6.055,1.782.055A30.087,30.087,0,0,0,13.1,9.7,27.759,27.759,0,0,0,8.526,3.536,11.129,11.129,0,0,0,4.811,6.579,11.7,11.7,0,0,0,2.632,10.884ZM6.717,22.727a11.2,11.2,0,0,0,11.021,1.645A40.255,40.255,0,0,0,15.6,15.3a11.692,11.692,0,0,0-5.085,2.769A15.551,15.551,0,0,0,6.717,22.727ZM10.911,2.659A29.133,29.133,0,0,1,15.38,8.882,13.653,13.653,0,0,0,21,4.907a11.113,11.113,0,0,0-7.292-2.632A10.523,10.523,0,0,0,10.911,2.659Zm5.455,8.17q.411.877.932,2.221,2.029-.192,4.414-.192,1.7,0,3.372.082A11.006,11.006,0,0,0,22.4,6.305,13.565,13.565,0,0,1,16.366,10.829Zm1.617,4.14A39.349,39.349,0,0,1,19.876,23.3a11.438,11.438,0,0,0,3.536-3.591,11.073,11.073,0,0,0,1.645-4.743q-2-.137-3.646-.137Q19.9,14.831,17.984,14.968Z" fill="#4d5255"/>
</svg>
