<svg xmlns="http://www.w3.org/2000/svg" xmlns:xlink="http://www.w3.org/1999/xlink" width="37" height="37" viewBox="0 0 37 37">
  <defs>
    <clipPath id="clip-path">
      <rect id="Rectangle_851" data-name="Rectangle 851" width="17.902" height="17.902" fill="#ba7bed"/>
    </clipPath>
  </defs>
  <g id="Group_450" data-name="Group 450" transform="translate(-987 -3580)">
    <circle id="Ellipse_13" data-name="Ellipse 13" cx="18.5" cy="18.5" r="18.5" transform="translate(987 3580)" fill="#ba7bed" opacity="0.302"/>
    <g id="Group_362" data-name="Group 362" transform="translate(997 3590)">
      <g id="Group_361" data-name="Group 361" transform="translate(0 0)" clip-path="url(#clip-path)">
        <path id="Path_774" data-name="Path 774" d="M5.244.062a6.537,6.537,0,0,0-2.171.42A4.374,4.374,0,0,0,1.489,1.518,4.387,4.387,0,0,0,.46,3.1,6.573,6.573,0,0,0,.048,5.279C.006,6.233,0,6.538,0,8.968S.017,11.7.062,12.659a6.551,6.551,0,0,0,.42,2.171,4.376,4.376,0,0,0,1.035,1.583,4.39,4.39,0,0,0,1.588,1.03,6.568,6.568,0,0,0,2.173.412c.955.042,1.26.052,3.69.047s2.736-.015,3.691-.061a6.584,6.584,0,0,0,2.171-.42A4.575,4.575,0,0,0,17.442,14.8a6.555,6.555,0,0,0,.412-2.173c.042-.955.052-1.26.047-3.69s-.016-2.735-.061-3.69a6.565,6.565,0,0,0-.42-2.172,4.39,4.39,0,0,0-1.035-1.583A4.383,4.383,0,0,0,14.8.46,6.552,6.552,0,0,0,12.624.048C11.67.006,11.365,0,8.934,0S6.2.016,5.244.062m.1,16.181a4.976,4.976,0,0,1-1.662-.3,2.791,2.791,0,0,1-1.031-.668,2.785,2.785,0,0,1-.672-1.028,4.966,4.966,0,0,1-.311-1.662c-.044-.944-.054-1.226-.059-3.617s0-2.672.045-3.617a4.954,4.954,0,0,1,.3-1.662,2.781,2.781,0,0,1,.668-1.031,2.771,2.771,0,0,1,1.028-.671,4.958,4.958,0,0,1,1.661-.312c.944-.045,1.227-.054,3.616-.059s2.673,0,3.618.045a4.939,4.939,0,0,1,1.662.3,2.773,2.773,0,0,1,1.031.668,2.776,2.776,0,0,1,.672,1.028,4.955,4.955,0,0,1,.311,1.661c.045.944.055,1.227.059,3.616s0,2.673-.046,3.617a4.958,4.958,0,0,1-.3,1.663,2.963,2.963,0,0,1-1.7,1.7,4.957,4.957,0,0,1-1.66.311c-.944.045-1.227.055-3.617.059s-2.672,0-3.616-.045m7.3-12.077a1.074,1.074,0,1,0,1.072-1.076,1.074,1.074,0,0,0-1.072,1.076M4.355,8.96a4.6,4.6,0,1,0,4.587-4.6,4.6,4.6,0,0,0-4.587,4.6m1.612,0a2.984,2.984,0,1,1,2.989,2.978A2.984,2.984,0,0,1,5.967,8.957" transform="translate(0 0)" fill="#ba7bed"/>
      </g>
    </g>
  </g>
</svg>
