<svg id="Group_362" data-name="Group 362" xmlns="http://www.w3.org/2000/svg" xmlns:xlink="http://www.w3.org/1999/xlink" width="25.883" height="25.883" viewBox="0 0 25.883 25.883">
  <defs>
    <clipPath id="clip-path">
      <rect id="Rectangle_851" data-name="Rectangle 851" width="25.883" height="25.883" fill="#4d5255"/>
    </clipPath>
  </defs>
  <g id="Group_361" data-name="Group 361" transform="translate(0 0)" clip-path="url(#clip-path)">
    <path id="Path_774" data-name="Path 774" d="M7.582.09A9.452,9.452,0,0,0,4.443.7a6.325,6.325,0,0,0-2.29,1.5A6.343,6.343,0,0,0,.665,4.489a9.5,9.5,0,0,0-.6,3.143C.009,9.012-.005,9.452,0,12.966S.024,16.922.09,18.3A9.472,9.472,0,0,0,.7,21.441a6.327,6.327,0,0,0,1.5,2.289,6.348,6.348,0,0,0,2.3,1.489,9.5,9.5,0,0,0,3.142.6c1.381.061,1.821.075,5.335.068s3.956-.022,5.336-.088a9.52,9.52,0,0,0,3.139-.608,6.615,6.615,0,0,0,3.777-3.793,9.477,9.477,0,0,0,.6-3.141c.06-1.381.075-1.822.068-5.336s-.023-3.955-.088-5.335a9.492,9.492,0,0,0-.608-3.14,6.347,6.347,0,0,0-1.5-2.289A6.336,6.336,0,0,0,21.395.665a9.473,9.473,0,0,0-3.142-.6C16.872.009,16.431-.005,12.917,0S8.963.023,7.582.09m.151,23.4a7.194,7.194,0,0,1-2.4-.44,4.035,4.035,0,0,1-1.49-.965,4.026,4.026,0,0,1-.971-1.486,7.18,7.18,0,0,1-.45-2.4c-.064-1.364-.079-1.773-.085-5.229S2.339,9.1,2.4,7.733a7.163,7.163,0,0,1,.44-2.4A4.021,4.021,0,0,1,3.8,3.839a4.006,4.006,0,0,1,1.486-.97,7.168,7.168,0,0,1,2.4-.45c1.365-.064,1.774-.078,5.228-.085s3.865.006,5.23.065a7.141,7.141,0,0,1,2.4.44,4.009,4.009,0,0,1,1.49.965,4.014,4.014,0,0,1,.971,1.487,7.165,7.165,0,0,1,.449,2.4c.065,1.364.08,1.774.086,5.229s-.006,3.865-.066,5.229a7.168,7.168,0,0,1-.44,2.4,4.285,4.285,0,0,1-2.452,2.461,7.167,7.167,0,0,1-2.4.45c-1.365.064-1.774.079-5.23.085s-3.864-.006-5.229-.065M18.283,6.024a1.553,1.553,0,1,0,1.549-1.556,1.553,1.553,0,0,0-1.549,1.556M6.3,12.954A6.645,6.645,0,1,0,12.929,6.3,6.644,6.644,0,0,0,6.3,12.954m2.331,0a4.314,4.314,0,1,1,4.322,4.306A4.314,4.314,0,0,1,8.628,12.95" transform="translate(0 0)" fill="#4d5255"/>
  </g>
</svg>
